<mxfile host="Electron" modified="2023-12-31T08:30:36.202Z" agent="Mozilla/5.0 (Windows NT 10.0; Win64; x64) AppleWebKit/537.36 (KHTML, like Gecko) draw.io/22.1.2 Chrome/114.0.5735.289 Electron/25.9.4 Safari/537.36" etag="qcTvSg21sXbvBumTlU9-" version="22.1.2" type="device" pages="2">
  <diagram name="Source Code" id="7Yl1j7hWzFzfxB7Ugltn">
    <mxGraphModel dx="1235" dy="787" grid="1" gridSize="10" guides="1" tooltips="1" connect="1" arrows="1" fold="1" page="1" pageScale="1" pageWidth="827" pageHeight="1169" math="0" shadow="0">
      <root>
        <mxCell id="0" />
        <mxCell id="1" parent="0" />
        <mxCell id="TXqBJnMHg3nRR2fo_P6X-18" value="Data Classes" style="swimlane;fontFamily=JetBrains Mono;fontSource=https%3A%2F%2Ffonts.googleapis.com%2Fcss%3Ffamily%3DJetBrains%2BMono;" parent="1" vertex="1">
          <mxGeometry x="124" y="40" width="580" height="340" as="geometry" />
        </mxCell>
        <mxCell id="hUlCYDlnPYXKLQQ7UgIX-23" value="Supplier" style="swimlane;fontStyle=1;align=center;verticalAlign=top;childLayout=stackLayout;horizontal=1;startSize=26;horizontalStack=0;resizeParent=1;resizeParentMax=0;resizeLast=0;collapsible=1;marginBottom=0;whiteSpace=wrap;html=1;fontFamily=JetBrains Mono;fontSource=https%3A%2F%2Ffonts.googleapis.com%2Fcss%3Ffamily%3DJetBrains%2BMono;fontSize=12;" parent="TXqBJnMHg3nRR2fo_P6X-18" vertex="1">
          <mxGeometry x="330" y="40" width="230" height="280" as="geometry" />
        </mxCell>
        <mxCell id="hUlCYDlnPYXKLQQ7UgIX-24" value="+ name: string&lt;br style=&quot;font-size: 12px;&quot;&gt;+ code: unsigned&lt;br style=&quot;font-size: 12px;&quot;&gt;+ address: string&lt;br style=&quot;font-size: 12px;&quot;&gt;+ telephone: string&lt;br style=&quot;font-size: 12px;&quot;&gt;+ email: string" style="text;strokeColor=none;fillColor=none;align=left;verticalAlign=top;spacingLeft=4;spacingRight=4;overflow=hidden;rotatable=0;points=[[0,0.5],[1,0.5]];portConstraint=eastwest;whiteSpace=wrap;html=1;fontFamily=JetBrains Mono;fontSource=https%3A%2F%2Ffonts.googleapis.com%2Fcss%3Ffamily%3DJetBrains%2BMono;fontSize=12;" parent="hUlCYDlnPYXKLQQ7UgIX-23" vertex="1">
          <mxGeometry y="26" width="230" height="84" as="geometry" />
        </mxCell>
        <mxCell id="hUlCYDlnPYXKLQQ7UgIX-25" value="" style="line;strokeWidth=1;fillColor=none;align=left;verticalAlign=middle;spacingTop=-1;spacingLeft=3;spacingRight=3;rotatable=0;labelPosition=right;points=[];portConstraint=eastwest;strokeColor=inherit;fontFamily=JetBrains Mono;fontSource=https%3A%2F%2Ffonts.googleapis.com%2Fcss%3Ffamily%3DJetBrains%2BMono;fontSize=12;" parent="hUlCYDlnPYXKLQQ7UgIX-23" vertex="1">
          <mxGeometry y="110" width="230" height="8" as="geometry" />
        </mxCell>
        <mxCell id="hUlCYDlnPYXKLQQ7UgIX-26" value="+ name(): string&lt;br&gt;+ code(): unsigned&lt;br&gt;+ address(): string&lt;br&gt;+ telephone(): string&lt;br&gt;+ email(): string&lt;br&gt;+ setName(string&amp;amp;): void&lt;br&gt;+ setCode(unsigned): void&lt;br&gt;+ setAddress(string&amp;amp;): void&lt;br&gt;+ setTelephone(string&amp;amp;): void&lt;br&gt;+ setEmail(string&amp;amp;): void" style="text;strokeColor=none;fillColor=none;align=left;verticalAlign=top;spacingLeft=4;spacingRight=4;overflow=hidden;rotatable=0;points=[[0,0.5],[1,0.5]];portConstraint=eastwest;whiteSpace=wrap;html=1;fontFamily=JetBrains Mono;fontSource=https%3A%2F%2Ffonts.googleapis.com%2Fcss%3Ffamily%3DJetBrains%2BMono;fontSize=12;" parent="hUlCYDlnPYXKLQQ7UgIX-23" vertex="1">
          <mxGeometry y="118" width="230" height="162" as="geometry" />
        </mxCell>
        <mxCell id="hUlCYDlnPYXKLQQ7UgIX-6" value="SparePart" style="swimlane;fontStyle=1;align=center;verticalAlign=top;childLayout=stackLayout;horizontal=1;startSize=26;horizontalStack=0;resizeParent=1;resizeParentMax=0;resizeLast=0;collapsible=1;marginBottom=0;whiteSpace=wrap;html=1;fontFamily=JetBrains Mono;fontSource=https%3A%2F%2Ffonts.googleapis.com%2Fcss%3Ffamily%3DJetBrains%2BMono;fontSize=12;" parent="TXqBJnMHg3nRR2fo_P6X-18" vertex="1">
          <mxGeometry x="20" y="40" width="270" height="240" as="geometry" />
        </mxCell>
        <mxCell id="hUlCYDlnPYXKLQQ7UgIX-7" value="+ name: string&lt;br style=&quot;font-size: 12px;&quot;&gt;+ number: unsigned&lt;br style=&quot;font-size: 12px;&quot;&gt;+ cost: double&lt;br style=&quot;font-size: 12px;&quot;&gt;+ existingParts: unsigned" style="text;strokeColor=none;fillColor=none;align=left;verticalAlign=top;spacingLeft=4;spacingRight=4;overflow=hidden;rotatable=0;points=[[0,0.5],[1,0.5]];portConstraint=eastwest;whiteSpace=wrap;html=1;fontFamily=JetBrains Mono;fontSource=https%3A%2F%2Ffonts.googleapis.com%2Fcss%3Ffamily%3DJetBrains%2BMono;fontSize=12;" parent="hUlCYDlnPYXKLQQ7UgIX-6" vertex="1">
          <mxGeometry y="26" width="270" height="74" as="geometry" />
        </mxCell>
        <mxCell id="hUlCYDlnPYXKLQQ7UgIX-8" value="" style="line;strokeWidth=1;fillColor=none;align=left;verticalAlign=middle;spacingTop=-1;spacingLeft=3;spacingRight=3;rotatable=0;labelPosition=right;points=[];portConstraint=eastwest;strokeColor=inherit;fontFamily=JetBrains Mono;fontSource=https%3A%2F%2Ffonts.googleapis.com%2Fcss%3Ffamily%3DJetBrains%2BMono;fontSize=12;" parent="hUlCYDlnPYXKLQQ7UgIX-6" vertex="1">
          <mxGeometry y="100" width="270" height="8" as="geometry" />
        </mxCell>
        <mxCell id="hUlCYDlnPYXKLQQ7UgIX-9" value="+ name(): string&lt;br style=&quot;font-size: 12px;&quot;&gt;+ code(): unsigned&lt;br style=&quot;font-size: 12px;&quot;&gt;+ cost(): double&lt;br&gt;+ existingParts(): unsigned&lt;br&gt;+ setName(string&amp;amp;): void&lt;br&gt;+ setNumber(unsigned): void&lt;br&gt;+ setCost(double): void&lt;br&gt;+ setExistingParts(unsigned): void" style="text;strokeColor=none;fillColor=none;align=left;verticalAlign=top;spacingLeft=4;spacingRight=4;overflow=hidden;rotatable=0;points=[[0,0.5],[1,0.5]];portConstraint=eastwest;whiteSpace=wrap;html=1;fontFamily=JetBrains Mono;fontSource=https%3A%2F%2Ffonts.googleapis.com%2Fcss%3Ffamily%3DJetBrains%2BMono;fontSize=12;" parent="hUlCYDlnPYXKLQQ7UgIX-6" vertex="1">
          <mxGeometry y="108" width="270" height="132" as="geometry" />
        </mxCell>
        <mxCell id="TXqBJnMHg3nRR2fo_P6X-29" value="Linked List (LL) Classes" style="swimlane;fontFamily=JetBrains Mono;fontSource=https%3A%2F%2Ffonts.googleapis.com%2Fcss%3Ffamily%3DJetBrains%2BMono;" parent="1" vertex="1">
          <mxGeometry x="144" y="420" width="540" height="410" as="geometry">
            <mxRectangle x="144" y="320" width="180" height="30" as="alternateBounds" />
          </mxGeometry>
        </mxCell>
        <mxCell id="TXqBJnMHg3nRR2fo_P6X-1" value="LinkedList&amp;lt;Record, Node&amp;gt;" style="swimlane;fontStyle=1;align=center;verticalAlign=top;childLayout=stackLayout;horizontal=1;startSize=26;horizontalStack=0;resizeParent=1;resizeParentMax=0;resizeLast=0;collapsible=1;marginBottom=0;whiteSpace=wrap;html=1;fontFamily=JetBrains Mono;fontSource=https%3A%2F%2Ffonts.googleapis.com%2Fcss%3Ffamily%3DJetBrains%2BMono;" parent="TXqBJnMHg3nRR2fo_P6X-29" vertex="1">
          <mxGeometry x="170" y="40" width="200" height="180" as="geometry" />
        </mxCell>
        <mxCell id="TXqBJnMHg3nRR2fo_P6X-2" value="+ record: Record&lt;br&gt;+ head: Node*" style="text;strokeColor=none;fillColor=none;align=left;verticalAlign=top;spacingLeft=4;spacingRight=4;overflow=hidden;rotatable=0;points=[[0,0.5],[1,0.5]];portConstraint=eastwest;whiteSpace=wrap;html=1;fontFamily=JetBrains Mono;fontSource=https%3A%2F%2Ffonts.googleapis.com%2Fcss%3Ffamily%3DJetBrains%2BMono;" parent="TXqBJnMHg3nRR2fo_P6X-1" vertex="1">
          <mxGeometry y="26" width="200" height="44" as="geometry" />
        </mxCell>
        <mxCell id="TXqBJnMHg3nRR2fo_P6X-3" value="" style="line;strokeWidth=1;fillColor=none;align=left;verticalAlign=middle;spacingTop=-1;spacingLeft=3;spacingRight=3;rotatable=0;labelPosition=right;points=[];portConstraint=eastwest;strokeColor=inherit;fontFamily=JetBrains Mono;fontSource=https%3A%2F%2Ffonts.googleapis.com%2Fcss%3Ffamily%3DJetBrains%2BMono;" parent="TXqBJnMHg3nRR2fo_P6X-1" vertex="1">
          <mxGeometry y="70" width="200" height="8" as="geometry" />
        </mxCell>
        <mxCell id="TXqBJnMHg3nRR2fo_P6X-4" value="+ record(): Record&amp;amp;&lt;br&gt;+ head(): Node*&lt;br&gt;+ setRecord(Record&amp;amp;): void&lt;br&gt;+ setHead(Node*): void&lt;br&gt;+ insert(Node*): void&lt;br&gt;+ remove(Node*): bool" style="text;strokeColor=none;fillColor=none;align=left;verticalAlign=top;spacingLeft=4;spacingRight=4;overflow=hidden;rotatable=0;points=[[0,0.5],[1,0.5]];portConstraint=eastwest;whiteSpace=wrap;html=1;fontFamily=JetBrains Mono;fontSource=https%3A%2F%2Ffonts.googleapis.com%2Fcss%3Ffamily%3DJetBrains%2BMono;" parent="TXqBJnMHg3nRR2fo_P6X-1" vertex="1">
          <mxGeometry y="78" width="200" height="102" as="geometry" />
        </mxCell>
        <mxCell id="TXqBJnMHg3nRR2fo_P6X-13" value="SupplierNode" style="swimlane;fontStyle=1;align=center;verticalAlign=top;childLayout=stackLayout;horizontal=1;startSize=26;horizontalStack=0;resizeParent=1;resizeParentMax=0;resizeLast=0;collapsible=1;marginBottom=0;whiteSpace=wrap;html=1;fontFamily=JetBrains Mono;fontSource=https%3A%2F%2Ffonts.googleapis.com%2Fcss%3Ffamily%3DJetBrains%2BMono;fontSize=12;" parent="TXqBJnMHg3nRR2fo_P6X-29" vertex="1">
          <mxGeometry x="290" y="240" width="230" height="150" as="geometry" />
        </mxCell>
        <mxCell id="TXqBJnMHg3nRR2fo_P6X-14" value="+ data: Supplier&lt;br style=&quot;font-size: 12px;&quot;&gt;+ next: SupplierNode*" style="text;strokeColor=none;fillColor=none;align=left;verticalAlign=top;spacingLeft=4;spacingRight=4;overflow=hidden;rotatable=0;points=[[0,0.5],[1,0.5]];portConstraint=eastwest;whiteSpace=wrap;html=1;fontFamily=JetBrains Mono;fontSource=https%3A%2F%2Ffonts.googleapis.com%2Fcss%3Ffamily%3DJetBrains%2BMono;fontSize=12;" parent="TXqBJnMHg3nRR2fo_P6X-13" vertex="1">
          <mxGeometry y="26" width="230" height="44" as="geometry" />
        </mxCell>
        <mxCell id="TXqBJnMHg3nRR2fo_P6X-15" value="" style="line;strokeWidth=1;fillColor=none;align=left;verticalAlign=middle;spacingTop=-1;spacingLeft=3;spacingRight=3;rotatable=0;labelPosition=right;points=[];portConstraint=eastwest;strokeColor=inherit;fontFamily=JetBrains Mono;fontSource=https%3A%2F%2Ffonts.googleapis.com%2Fcss%3Ffamily%3DJetBrains%2BMono;fontSize=12;" parent="TXqBJnMHg3nRR2fo_P6X-13" vertex="1">
          <mxGeometry y="70" width="230" height="8" as="geometry" />
        </mxCell>
        <mxCell id="TXqBJnMHg3nRR2fo_P6X-16" value="+ data(): Supplier&amp;amp;&lt;br style=&quot;font-size: 12px;&quot;&gt;+ next(): SupplierNode*&lt;br&gt;+ setData(Supplier&amp;amp;): void&lt;br&gt;+ setNext(SupplierNode*): void" style="text;strokeColor=none;fillColor=none;align=left;verticalAlign=top;spacingLeft=4;spacingRight=4;overflow=hidden;rotatable=0;points=[[0,0.5],[1,0.5]];portConstraint=eastwest;whiteSpace=wrap;html=1;fontFamily=JetBrains Mono;fontSource=https%3A%2F%2Ffonts.googleapis.com%2Fcss%3Ffamily%3DJetBrains%2BMono;fontSize=12;" parent="TXqBJnMHg3nRR2fo_P6X-13" vertex="1">
          <mxGeometry y="78" width="230" height="72" as="geometry" />
        </mxCell>
        <mxCell id="TXqBJnMHg3nRR2fo_P6X-9" value="SparePartNode" style="swimlane;fontStyle=1;align=center;verticalAlign=top;childLayout=stackLayout;horizontal=1;startSize=26;horizontalStack=0;resizeParent=1;resizeParentMax=0;resizeLast=0;collapsible=1;marginBottom=0;whiteSpace=wrap;html=1;fontFamily=JetBrains Mono;fontSource=https%3A%2F%2Ffonts.googleapis.com%2Fcss%3Ffamily%3DJetBrains%2BMono;fontSize=12;" parent="TXqBJnMHg3nRR2fo_P6X-29" vertex="1">
          <mxGeometry x="20" y="240" width="240" height="150" as="geometry" />
        </mxCell>
        <mxCell id="TXqBJnMHg3nRR2fo_P6X-10" value="+ data: SparePart&lt;br style=&quot;font-size: 12px;&quot;&gt;+ next: SparePartNode*" style="text;strokeColor=none;fillColor=none;align=left;verticalAlign=top;spacingLeft=4;spacingRight=4;overflow=hidden;rotatable=0;points=[[0,0.5],[1,0.5]];portConstraint=eastwest;whiteSpace=wrap;html=1;fontFamily=JetBrains Mono;fontSource=https%3A%2F%2Ffonts.googleapis.com%2Fcss%3Ffamily%3DJetBrains%2BMono;fontSize=12;" parent="TXqBJnMHg3nRR2fo_P6X-9" vertex="1">
          <mxGeometry y="26" width="240" height="44" as="geometry" />
        </mxCell>
        <mxCell id="TXqBJnMHg3nRR2fo_P6X-11" value="" style="line;strokeWidth=1;fillColor=none;align=left;verticalAlign=middle;spacingTop=-1;spacingLeft=3;spacingRight=3;rotatable=0;labelPosition=right;points=[];portConstraint=eastwest;strokeColor=inherit;fontFamily=JetBrains Mono;fontSource=https%3A%2F%2Ffonts.googleapis.com%2Fcss%3Ffamily%3DJetBrains%2BMono;fontSize=12;" parent="TXqBJnMHg3nRR2fo_P6X-9" vertex="1">
          <mxGeometry y="70" width="240" height="8" as="geometry" />
        </mxCell>
        <mxCell id="TXqBJnMHg3nRR2fo_P6X-12" value="+ data(): SparePart&amp;amp;&lt;br style=&quot;font-size: 12px;&quot;&gt;+ next(): SparePartNode*&lt;br&gt;+ setData(SparePart&amp;amp;): void&lt;br&gt;+ setNext(SparePartNode*): void" style="text;strokeColor=none;fillColor=none;align=left;verticalAlign=top;spacingLeft=4;spacingRight=4;overflow=hidden;rotatable=0;points=[[0,0.5],[1,0.5]];portConstraint=eastwest;whiteSpace=wrap;html=1;fontFamily=JetBrains Mono;fontSource=https%3A%2F%2Ffonts.googleapis.com%2Fcss%3Ffamily%3DJetBrains%2BMono;fontSize=12;" parent="TXqBJnMHg3nRR2fo_P6X-9" vertex="1">
          <mxGeometry y="78" width="240" height="72" as="geometry" />
        </mxCell>
        <mxCell id="UsafKB2De1vp2OHgwIYt-1" value="Binary Search Tree (BST) Classes" style="swimlane;fontFamily=JetBrains Mono;fontSource=https%3A%2F%2Ffonts.googleapis.com%2Fcss%3Ffamily%3DJetBrains%2BMono;startSize=23;" parent="1" vertex="1">
          <mxGeometry x="790" y="200" width="540" height="480" as="geometry" />
        </mxCell>
        <mxCell id="aRsFaNyRPynvZA2eyUji-9" value="BSTNode&amp;lt;Record, Node&amp;gt;" style="swimlane;fontStyle=1;align=center;verticalAlign=top;childLayout=stackLayout;horizontal=1;startSize=26;horizontalStack=0;resizeParent=1;resizeParentMax=0;resizeLast=0;collapsible=1;marginBottom=0;whiteSpace=wrap;html=1;fontFamily=JetBrains Mono;fontSource=https%3A%2F%2Ffonts.googleapis.com%2Fcss%3Ffamily%3DJetBrains%2BMono;fontSize=12;" parent="UsafKB2De1vp2OHgwIYt-1" vertex="1">
          <mxGeometry x="110" y="270" width="320" height="190" as="geometry" />
        </mxCell>
        <mxCell id="aRsFaNyRPynvZA2eyUji-10" value="+ data: LinkedList&amp;lt;Record, Node&amp;gt;&lt;br style=&quot;font-size: 12px;&quot;&gt;+ left: BSTNode&amp;lt;Record, Node&amp;gt;*&lt;br&gt;+ right: BSTNode&amp;lt;Record, Node&amp;gt;*" style="text;strokeColor=none;fillColor=none;align=left;verticalAlign=top;spacingLeft=4;spacingRight=4;overflow=hidden;rotatable=0;points=[[0,0.5],[1,0.5]];portConstraint=eastwest;whiteSpace=wrap;html=1;fontFamily=JetBrains Mono;fontSource=https%3A%2F%2Ffonts.googleapis.com%2Fcss%3Ffamily%3DJetBrains%2BMono;fontSize=12;" parent="aRsFaNyRPynvZA2eyUji-9" vertex="1">
          <mxGeometry y="26" width="320" height="54" as="geometry" />
        </mxCell>
        <mxCell id="aRsFaNyRPynvZA2eyUji-11" value="" style="line;strokeWidth=1;fillColor=none;align=left;verticalAlign=middle;spacingTop=-1;spacingLeft=3;spacingRight=3;rotatable=0;labelPosition=right;points=[];portConstraint=eastwest;strokeColor=inherit;fontFamily=JetBrains Mono;fontSource=https%3A%2F%2Ffonts.googleapis.com%2Fcss%3Ffamily%3DJetBrains%2BMono;fontSize=12;" parent="aRsFaNyRPynvZA2eyUji-9" vertex="1">
          <mxGeometry y="80" width="320" height="8" as="geometry" />
        </mxCell>
        <mxCell id="aRsFaNyRPynvZA2eyUji-12" value="+ data(): LinkedList&amp;lt;Record, Node&amp;gt;&amp;amp;&lt;br&gt;+ left(): BSTNode&amp;lt;Record, Node&amp;gt;*&lt;br&gt;+ right(): BSTNode&amp;lt;Record, Node&amp;gt;*&lt;br&gt;+ setData(LinkedList&amp;lt;Record, Node&amp;gt;&amp;amp;): void&lt;br&gt;+ setLeft(BSTNode&amp;lt;Record, Node&amp;gt;*): void&lt;br&gt;+ setRight(BSTNode&amp;lt;Record, Node&amp;gt;*): void" style="text;strokeColor=none;fillColor=none;align=left;verticalAlign=top;spacingLeft=4;spacingRight=4;overflow=hidden;rotatable=0;points=[[0,0.5],[1,0.5]];portConstraint=eastwest;whiteSpace=wrap;html=1;fontFamily=JetBrains Mono;fontSource=https%3A%2F%2Ffonts.googleapis.com%2Fcss%3Ffamily%3DJetBrains%2BMono;fontSize=12;" parent="aRsFaNyRPynvZA2eyUji-9" vertex="1">
          <mxGeometry y="88" width="320" height="102" as="geometry" />
        </mxCell>
        <mxCell id="aRsFaNyRPynvZA2eyUji-13" value="BST&amp;lt;Record, Node&amp;gt;" style="swimlane;fontStyle=1;align=center;verticalAlign=top;childLayout=stackLayout;horizontal=1;startSize=26;horizontalStack=0;resizeParent=1;resizeParentMax=0;resizeLast=0;collapsible=1;marginBottom=0;whiteSpace=wrap;html=1;fontFamily=JetBrains Mono;fontSource=https%3A%2F%2Ffonts.googleapis.com%2Fcss%3Ffamily%3DJetBrains%2BMono;fontSize=12;" parent="UsafKB2De1vp2OHgwIYt-1" vertex="1">
          <mxGeometry x="40" y="40" width="460" height="210" as="geometry" />
        </mxCell>
        <mxCell id="aRsFaNyRPynvZA2eyUji-14" value="+ root: BSTNode&amp;lt;Record, Node&amp;gt;*" style="text;strokeColor=none;fillColor=none;align=left;verticalAlign=top;spacingLeft=4;spacingRight=4;overflow=hidden;rotatable=0;points=[[0,0.5],[1,0.5]];portConstraint=eastwest;whiteSpace=wrap;html=1;fontFamily=JetBrains Mono;fontSource=https%3A%2F%2Ffonts.googleapis.com%2Fcss%3Ffamily%3DJetBrains%2BMono;fontSize=12;" parent="aRsFaNyRPynvZA2eyUji-13" vertex="1">
          <mxGeometry y="26" width="460" height="24" as="geometry" />
        </mxCell>
        <mxCell id="aRsFaNyRPynvZA2eyUji-15" value="" style="line;strokeWidth=1;fillColor=none;align=left;verticalAlign=middle;spacingTop=-1;spacingLeft=3;spacingRight=3;rotatable=0;labelPosition=right;points=[];portConstraint=eastwest;strokeColor=inherit;fontFamily=JetBrains Mono;fontSource=https%3A%2F%2Ffonts.googleapis.com%2Fcss%3Ffamily%3DJetBrains%2BMono;fontSize=12;" parent="aRsFaNyRPynvZA2eyUji-13" vertex="1">
          <mxGeometry y="50" width="460" height="8" as="geometry" />
        </mxCell>
        <mxCell id="aRsFaNyRPynvZA2eyUji-16" value="+ root(): BSTNode&amp;lt;Record, Node&amp;gt;*&lt;br&gt;+ setRoot(BSTNode&amp;lt;Record, Node&amp;gt;*): void&lt;br&gt;+ insert(LinkedList&amp;lt;Record, Node&amp;gt;): bool&lt;br&gt;+ search(unsigned): BSTNode&amp;lt;Record, Node&amp;gt;*&lt;br&gt;+ remove(unsigned): bool&lt;br&gt;+&amp;nbsp;deleteNodeHelper(LinkedList&amp;lt;Record, Node&amp;gt;*, unsigned):&lt;br&gt;&lt;span style=&quot;white-space: pre;&quot;&gt;&#x9;&lt;/span&gt;LinkedList&amp;lt;Record, Node&amp;gt;*&lt;br&gt;+&amp;nbsp;minValueNode(BSTNode&amp;lt;Record, Node&amp;gt;*): BSTNode&amp;lt;Record, Node&amp;gt;*&lt;br&gt;+ maxValueNode(BSTNode&amp;lt;Record, Node&amp;gt;*): BSTNode&amp;lt;Record, Node&amp;gt;*" style="text;strokeColor=none;fillColor=none;align=left;verticalAlign=top;spacingLeft=4;spacingRight=4;overflow=hidden;rotatable=0;points=[[0,0.5],[1,0.5]];portConstraint=eastwest;whiteSpace=wrap;html=1;fontFamily=JetBrains Mono;fontSource=https%3A%2F%2Ffonts.googleapis.com%2Fcss%3Ffamily%3DJetBrains%2BMono;fontSize=12;" parent="aRsFaNyRPynvZA2eyUji-13" vertex="1">
          <mxGeometry y="58" width="460" height="152" as="geometry" />
        </mxCell>
      </root>
    </mxGraphModel>
  </diagram>
  <diagram id="YkeHzWqtaeZXz5vmrtuq" name="GUI Code">
    <mxGraphModel dx="923" dy="1115" grid="1" gridSize="10" guides="1" tooltips="1" connect="1" arrows="1" fold="1" page="1" pageScale="1" pageWidth="827" pageHeight="1169" math="0" shadow="0">
      <root>
        <mxCell id="0" />
        <mxCell id="1" parent="0" />
        <mxCell id="jmOYWnTkP0ZPnIiyjYiJ-2" value="Tab View Classes" style="swimlane;fontFamily=JetBrains Mono;fontSource=https%3A%2F%2Ffonts.googleapis.com%2Fcss%3Ffamily%3DJetBrains%2BMono;" vertex="1" parent="1">
          <mxGeometry x="871" y="330" width="740" height="360" as="geometry" />
        </mxCell>
        <mxCell id="jmOYWnTkP0ZPnIiyjYiJ-3" value="SparePartsView ⋘ QWidget" style="swimlane;fontStyle=1;align=center;verticalAlign=top;childLayout=stackLayout;horizontal=1;startSize=26;horizontalStack=0;resizeParent=1;resizeParentMax=0;resizeLast=0;collapsible=1;marginBottom=0;whiteSpace=wrap;html=1;fontFamily=JetBrains Mono;fontSource=https%3A%2F%2Ffonts.googleapis.com%2Fcss%3Ffamily%3DJetBrains%2BMono;fontSize=12;" vertex="1" parent="jmOYWnTkP0ZPnIiyjYiJ-2">
          <mxGeometry x="20" y="40" width="340" height="300" as="geometry" />
        </mxCell>
        <mxCell id="jmOYWnTkP0ZPnIiyjYiJ-4" value="&lt;div&gt;+ searchLineEdit: QLineEdit*&lt;/div&gt;&lt;div&gt;+ sparePartsTreeView: QTreeView*&lt;/div&gt;&lt;div&gt;+ sparePartsModel: QStandardItemModel*&lt;/div&gt;&lt;div&gt;+ suppliersTreeView: QTreeView*&lt;/div&gt;&lt;div&gt;+ suppliersModel: QStandardItemModel*&lt;/div&gt;&lt;div&gt;+ addSparePartButton: QPushButton*&lt;/div&gt;&lt;div&gt;+ deleteSparePartButton: QPushButton*&lt;/div&gt;&lt;div&gt;+ addSupplierButton: QPushButton*&lt;/div&gt;&lt;div&gt;+ deleteSupplierButton: QPushButton*&lt;/div&gt;&lt;div&gt;+ sparePartsBST: BST&amp;lt;SparePart, SupplierNode&amp;gt;&lt;/div&gt;" style="text;strokeColor=none;fillColor=none;align=left;verticalAlign=top;spacingLeft=4;spacingRight=4;overflow=hidden;rotatable=0;points=[[0,0.5],[1,0.5]];portConstraint=eastwest;whiteSpace=wrap;html=1;fontFamily=JetBrains Mono;fontSource=https%3A%2F%2Ffonts.googleapis.com%2Fcss%3Ffamily%3DJetBrains%2BMono;fontSize=12;" vertex="1" parent="jmOYWnTkP0ZPnIiyjYiJ-3">
          <mxGeometry y="26" width="340" height="154" as="geometry" />
        </mxCell>
        <mxCell id="jmOYWnTkP0ZPnIiyjYiJ-5" value="" style="line;strokeWidth=1;fillColor=none;align=left;verticalAlign=middle;spacingTop=-1;spacingLeft=3;spacingRight=3;rotatable=0;labelPosition=right;points=[];portConstraint=eastwest;strokeColor=inherit;fontFamily=JetBrains Mono;fontSource=https%3A%2F%2Ffonts.googleapis.com%2Fcss%3Ffamily%3DJetBrains%2BMono;fontSize=12;" vertex="1" parent="jmOYWnTkP0ZPnIiyjYiJ-3">
          <mxGeometry y="180" width="340" height="8" as="geometry" />
        </mxCell>
        <mxCell id="jmOYWnTkP0ZPnIiyjYiJ-6" value="&lt;div&gt;+ updateSparePartsTree(): void&lt;/div&gt;&lt;div&gt;+ filterSpareParts&lt;span style=&quot;background-color: initial;&quot;&gt;Tree(QString&amp;amp;): void&lt;/span&gt;&lt;/div&gt;&lt;div&gt;&lt;span style=&quot;background-color: initial;&quot;&gt;+ displaySuppliers(QModelIndex&amp;amp;): void&lt;/span&gt;&lt;/div&gt;&lt;div&gt;+ addSparePart&lt;span style=&quot;background-color: initial;&quot;&gt;(): void&lt;/span&gt;&lt;/div&gt;&lt;div&gt;+ deleteSparePart&lt;span style=&quot;background-color: initial;&quot;&gt;(): void&lt;/span&gt;&lt;/div&gt;&lt;div&gt;&lt;span style=&quot;background-color: initial;&quot;&gt;+ addSupplier(): void&lt;/span&gt;&lt;/div&gt;&lt;div&gt;&lt;span style=&quot;background-color: initial;&quot;&gt;+ deleteSupplier(): void&lt;/span&gt;&lt;/div&gt;" style="text;strokeColor=none;fillColor=none;align=left;verticalAlign=top;spacingLeft=4;spacingRight=4;overflow=hidden;rotatable=0;points=[[0,0.5],[1,0.5]];portConstraint=eastwest;whiteSpace=wrap;html=1;fontFamily=JetBrains Mono;fontSource=https%3A%2F%2Ffonts.googleapis.com%2Fcss%3Ffamily%3DJetBrains%2BMono;fontSize=12;" vertex="1" parent="jmOYWnTkP0ZPnIiyjYiJ-3">
          <mxGeometry y="188" width="340" height="112" as="geometry" />
        </mxCell>
        <mxCell id="jmOYWnTkP0ZPnIiyjYiJ-7" value="SuppliersView ⋘ QWidget" style="swimlane;fontStyle=1;align=center;verticalAlign=top;childLayout=stackLayout;horizontal=1;startSize=26;horizontalStack=0;resizeParent=1;resizeParentMax=0;resizeLast=0;collapsible=1;marginBottom=0;whiteSpace=wrap;html=1;fontFamily=JetBrains Mono;fontSource=https%3A%2F%2Ffonts.googleapis.com%2Fcss%3Ffamily%3DJetBrains%2BMono;fontSize=12;" vertex="1" parent="jmOYWnTkP0ZPnIiyjYiJ-2">
          <mxGeometry x="390" y="40" width="330" height="300" as="geometry" />
        </mxCell>
        <mxCell id="jmOYWnTkP0ZPnIiyjYiJ-8" value="&lt;div&gt;+ searchLineEdit: QLineEdit*&lt;/div&gt;&lt;div&gt;&lt;span style=&quot;background-color: initial;&quot;&gt;+ suppliersTreeView: QTreeView*&lt;/span&gt;&lt;/div&gt;&lt;div&gt;&lt;span style=&quot;background-color: initial;&quot;&gt;+ suppliersModel: QStandardItemModel*&lt;/span&gt;&lt;/div&gt;&lt;div&gt;&lt;span style=&quot;background-color: initial;&quot;&gt;+ sparePartsTreeView: QTreeView*&lt;/span&gt;&lt;/div&gt;&lt;div&gt;&lt;span style=&quot;background-color: initial;&quot;&gt;+ sparePartsModel: QStandardItemModel*&lt;/span&gt;&lt;/div&gt;&lt;div&gt;&lt;span style=&quot;background-color: initial;&quot;&gt;+ addSupplierButton: QPushButton*&lt;/span&gt;&lt;/div&gt;&lt;div&gt;&lt;span style=&quot;background-color: initial;&quot;&gt;+ deleteSupplierButton: QPushButton*&lt;/span&gt;&lt;/div&gt;&lt;div&gt;&lt;span style=&quot;background-color: initial;&quot;&gt;+ addSparePartButton: QPushButton*&lt;/span&gt;&lt;/div&gt;&lt;div&gt;&lt;span style=&quot;background-color: initial;&quot;&gt;+ deleteSparePartButton: QPushButton*&lt;/span&gt;&lt;/div&gt;&lt;div&gt;&lt;span style=&quot;background-color: initial;&quot;&gt;+ suppliersBST: BST&amp;lt;Supplier, SparePartNode&amp;gt;&lt;/span&gt;&lt;/div&gt;" style="text;strokeColor=none;fillColor=none;align=left;verticalAlign=top;spacingLeft=4;spacingRight=4;overflow=hidden;rotatable=0;points=[[0,0.5],[1,0.5]];portConstraint=eastwest;whiteSpace=wrap;html=1;fontFamily=JetBrains Mono;fontSource=https%3A%2F%2Ffonts.googleapis.com%2Fcss%3Ffamily%3DJetBrains%2BMono;fontSize=12;" vertex="1" parent="jmOYWnTkP0ZPnIiyjYiJ-7">
          <mxGeometry y="26" width="330" height="154" as="geometry" />
        </mxCell>
        <mxCell id="jmOYWnTkP0ZPnIiyjYiJ-9" value="" style="line;strokeWidth=1;fillColor=none;align=left;verticalAlign=middle;spacingTop=-1;spacingLeft=3;spacingRight=3;rotatable=0;labelPosition=right;points=[];portConstraint=eastwest;strokeColor=inherit;fontFamily=JetBrains Mono;fontSource=https%3A%2F%2Ffonts.googleapis.com%2Fcss%3Ffamily%3DJetBrains%2BMono;fontSize=12;" vertex="1" parent="jmOYWnTkP0ZPnIiyjYiJ-7">
          <mxGeometry y="180" width="330" height="8" as="geometry" />
        </mxCell>
        <mxCell id="jmOYWnTkP0ZPnIiyjYiJ-10" value="&lt;div&gt;+ updateSuppliersTree(): void&lt;/div&gt;&lt;div&gt;&lt;span style=&quot;background-color: initial;&quot;&gt;+ filterSuppliersTree(QString&amp;amp;): void&lt;/span&gt;&lt;/div&gt;&lt;div&gt;&lt;span style=&quot;background-color: initial;&quot;&gt;+ displaySpareParts(QModelIndex&amp;amp;): void&lt;/span&gt;&lt;/div&gt;&lt;div&gt;&lt;span style=&quot;background-color: initial;&quot;&gt;+ addSupplier(): void&lt;/span&gt;&lt;/div&gt;&lt;div&gt;&lt;span style=&quot;background-color: initial;&quot;&gt;+ deleteSupplier(): void&lt;/span&gt;&lt;/div&gt;&lt;div&gt;&lt;span style=&quot;background-color: initial;&quot;&gt;+ addSparePart(): void&lt;/span&gt;&lt;/div&gt;&lt;div&gt;&lt;span style=&quot;background-color: initial;&quot;&gt;+ deleteSparePart(): void&lt;/span&gt;&lt;/div&gt;" style="text;strokeColor=none;fillColor=none;align=left;verticalAlign=top;spacingLeft=4;spacingRight=4;overflow=hidden;rotatable=0;points=[[0,0.5],[1,0.5]];portConstraint=eastwest;whiteSpace=wrap;html=1;fontFamily=JetBrains Mono;fontSource=https%3A%2F%2Ffonts.googleapis.com%2Fcss%3Ffamily%3DJetBrains%2BMono;fontSize=12;" vertex="1" parent="jmOYWnTkP0ZPnIiyjYiJ-7">
          <mxGeometry y="188" width="330" height="112" as="geometry" />
        </mxCell>
        <mxCell id="jmOYWnTkP0ZPnIiyjYiJ-11" value="Log Classes" style="swimlane;strokeColor=default;align=center;verticalAlign=top;fontFamily=JetBrains Mono;fontSource=https%3A%2F%2Ffonts.googleapis.com%2Fcss%3Ffamily%3DJetBrains%2BMono;fontSize=12;fontColor=default;startSize=26;fillColor=default;html=1;" vertex="1" parent="1">
          <mxGeometry x="971" y="730" width="540" height="190" as="geometry" />
        </mxCell>
        <mxCell id="jmOYWnTkP0ZPnIiyjYiJ-12" value="Stack" style="swimlane;fontStyle=1;align=center;verticalAlign=top;childLayout=stackLayout;horizontal=1;startSize=26;horizontalStack=0;resizeParent=1;resizeParentMax=0;resizeLast=0;collapsible=1;marginBottom=0;whiteSpace=wrap;html=1;fontFamily=JetBrains Mono;fontSource=https%3A%2F%2Ffonts.googleapis.com%2Fcss%3Ffamily%3DJetBrains%2BMono;fontSize=12;" vertex="1" parent="jmOYWnTkP0ZPnIiyjYiJ-11">
          <mxGeometry x="19" y="40" width="210" height="130" as="geometry" />
        </mxCell>
        <mxCell id="jmOYWnTkP0ZPnIiyjYiJ-13" value="+ messages: vector&amp;lt;QString&amp;gt;" style="text;strokeColor=none;fillColor=none;align=left;verticalAlign=top;spacingLeft=4;spacingRight=4;overflow=hidden;rotatable=0;points=[[0,0.5],[1,0.5]];portConstraint=eastwest;whiteSpace=wrap;html=1;fontFamily=JetBrains Mono;fontSource=https%3A%2F%2Ffonts.googleapis.com%2Fcss%3Ffamily%3DJetBrains%2BMono;fontSize=12;" vertex="1" parent="jmOYWnTkP0ZPnIiyjYiJ-12">
          <mxGeometry y="26" width="210" height="24" as="geometry" />
        </mxCell>
        <mxCell id="jmOYWnTkP0ZPnIiyjYiJ-14" value="" style="line;strokeWidth=1;fillColor=none;align=left;verticalAlign=middle;spacingTop=-1;spacingLeft=3;spacingRight=3;rotatable=0;labelPosition=right;points=[];portConstraint=eastwest;strokeColor=inherit;fontFamily=JetBrains Mono;fontSource=https%3A%2F%2Ffonts.googleapis.com%2Fcss%3Ffamily%3DJetBrains%2BMono;fontSize=12;" vertex="1" parent="jmOYWnTkP0ZPnIiyjYiJ-12">
          <mxGeometry y="50" width="210" height="8" as="geometry" />
        </mxCell>
        <mxCell id="jmOYWnTkP0ZPnIiyjYiJ-15" value="+ push(QString&amp;amp;&lt;span style=&quot;background-color: initial;&quot;&gt;): void&lt;br&gt;&lt;/span&gt;+ pop(): void&lt;br&gt;+&amp;nbsp;top(): QString&lt;br&gt;+ empty(): bool" style="text;strokeColor=none;fillColor=none;align=left;verticalAlign=top;spacingLeft=4;spacingRight=4;overflow=hidden;rotatable=0;points=[[0,0.5],[1,0.5]];portConstraint=eastwest;whiteSpace=wrap;html=1;fontFamily=JetBrains Mono;fontSource=https%3A%2F%2Ffonts.googleapis.com%2Fcss%3Ffamily%3DJetBrains%2BMono;fontSize=12;" vertex="1" parent="jmOYWnTkP0ZPnIiyjYiJ-12">
          <mxGeometry y="58" width="210" height="72" as="geometry" />
        </mxCell>
        <mxCell id="jmOYWnTkP0ZPnIiyjYiJ-16" value="LogDisplay&amp;nbsp;⋘&amp;nbsp;QPlainTextEdit" style="swimlane;fontStyle=1;childLayout=stackLayout;horizontal=1;startSize=26;fillColor=default;horizontalStack=0;resizeParent=1;resizeParentMax=0;resizeLast=0;collapsible=1;marginBottom=0;whiteSpace=wrap;html=1;fontFamily=JetBrains Mono;verticalAlign=top;fontSource=https%3A%2F%2Ffonts.googleapis.com%2Fcss%3Ffamily%3DJetBrains%2BMono;" vertex="1" parent="jmOYWnTkP0ZPnIiyjYiJ-11">
          <mxGeometry x="260" y="80" width="250" height="50" as="geometry" />
        </mxCell>
        <mxCell id="jmOYWnTkP0ZPnIiyjYiJ-17" value="+ appendMessage(QString&amp;amp;): void" style="text;strokeColor=default;fillColor=default;align=center;verticalAlign=top;spacingLeft=4;spacingRight=4;overflow=hidden;rotatable=0;points=[[0,0.5],[1,0.5]];portConstraint=eastwest;whiteSpace=wrap;html=1;fontFamily=JetBrains Mono;fontStyle=0;startSize=26;fontSource=https%3A%2F%2Ffonts.googleapis.com%2Fcss%3Ffamily%3DJetBrains%2BMono;" vertex="1" parent="jmOYWnTkP0ZPnIiyjYiJ-16">
          <mxGeometry y="26" width="250" height="24" as="geometry" />
        </mxCell>
        <mxCell id="jmOYWnTkP0ZPnIiyjYiJ-18" value="Dialog Classes" style="swimlane;strokeColor=default;align=center;verticalAlign=top;fontFamily=JetBrains Mono;fontSource=https%3A%2F%2Ffonts.googleapis.com%2Fcss%3Ffamily%3DJetBrains%2BMono;fontSize=12;fontColor=default;startSize=26;fillColor=default;html=1;" vertex="1" parent="1">
          <mxGeometry x="950" y="960" width="582" height="290" as="geometry" />
        </mxCell>
        <mxCell id="jmOYWnTkP0ZPnIiyjYiJ-19" value="SupplierDialog ⋘ QDialog" style="swimlane;fontStyle=1;align=center;verticalAlign=top;childLayout=stackLayout;horizontal=1;startSize=26;horizontalStack=0;resizeParent=1;resizeParentMax=0;resizeLast=0;collapsible=1;marginBottom=0;whiteSpace=wrap;html=1;fontFamily=JetBrains Mono;fontSource=https%3A%2F%2Ffonts.googleapis.com%2Fcss%3Ffamily%3DJetBrains%2BMono;fontSize=12;" vertex="1" parent="jmOYWnTkP0ZPnIiyjYiJ-18">
          <mxGeometry x="24" y="50" width="240" height="220" as="geometry" />
        </mxCell>
        <mxCell id="jmOYWnTkP0ZPnIiyjYiJ-20" value="&lt;div&gt;+ lineEditName: QLineEdit*&lt;/div&gt;&lt;div&gt;+ lineEditCode: QLineEdit*&lt;/div&gt;&lt;div&gt;+ lineEditAddress: QLineEdit*&lt;/div&gt;&lt;div&gt;+ lineEditTelephone: QLineEdit*&lt;/div&gt;&lt;div&gt;+ lineEditEmail: QLineEdit*&lt;/div&gt;" style="text;strokeColor=none;fillColor=none;align=left;verticalAlign=top;spacingLeft=4;spacingRight=4;overflow=hidden;rotatable=0;points=[[0,0.5],[1,0.5]];portConstraint=eastwest;whiteSpace=wrap;html=1;fontFamily=JetBrains Mono;fontSource=https%3A%2F%2Ffonts.googleapis.com%2Fcss%3Ffamily%3DJetBrains%2BMono;fontSize=12;" vertex="1" parent="jmOYWnTkP0ZPnIiyjYiJ-19">
          <mxGeometry y="26" width="240" height="84" as="geometry" />
        </mxCell>
        <mxCell id="jmOYWnTkP0ZPnIiyjYiJ-21" value="" style="line;strokeWidth=1;fillColor=none;align=left;verticalAlign=middle;spacingTop=-1;spacingLeft=3;spacingRight=3;rotatable=0;labelPosition=right;points=[];portConstraint=eastwest;strokeColor=inherit;fontFamily=JetBrains Mono;fontSource=https%3A%2F%2Ffonts.googleapis.com%2Fcss%3Ffamily%3DJetBrains%2BMono;fontSize=12;" vertex="1" parent="jmOYWnTkP0ZPnIiyjYiJ-19">
          <mxGeometry y="110" width="240" height="8" as="geometry" />
        </mxCell>
        <mxCell id="jmOYWnTkP0ZPnIiyjYiJ-22" value="+&amp;nbsp;getName(): string&lt;br&gt;+ getCode(): unsigned&lt;br&gt;+ getAddress(): string&lt;br&gt;+ getTelephone(): string&lt;br&gt;+ getEmail(): string&lt;br&gt;+&amp;nbsp;accept(): void" style="text;strokeColor=none;fillColor=none;align=left;verticalAlign=top;spacingLeft=4;spacingRight=4;overflow=hidden;rotatable=0;points=[[0,0.5],[1,0.5]];portConstraint=eastwest;whiteSpace=wrap;html=1;fontFamily=JetBrains Mono;fontSource=https%3A%2F%2Ffonts.googleapis.com%2Fcss%3Ffamily%3DJetBrains%2BMono;fontSize=12;" vertex="1" parent="jmOYWnTkP0ZPnIiyjYiJ-19">
          <mxGeometry y="118" width="240" height="102" as="geometry" />
        </mxCell>
        <mxCell id="jmOYWnTkP0ZPnIiyjYiJ-23" value="SparePartDialog ⋘ QDialog" style="swimlane;fontStyle=1;align=center;verticalAlign=top;childLayout=stackLayout;horizontal=1;startSize=26;horizontalStack=0;resizeParent=1;resizeParentMax=0;resizeLast=0;collapsible=1;marginBottom=0;whiteSpace=wrap;html=1;fontFamily=JetBrains Mono;fontSource=https%3A%2F%2Ffonts.googleapis.com%2Fcss%3Ffamily%3DJetBrains%2BMono;fontSize=12;" vertex="1" parent="jmOYWnTkP0ZPnIiyjYiJ-18">
          <mxGeometry x="290" y="70" width="270" height="180" as="geometry" />
        </mxCell>
        <mxCell id="jmOYWnTkP0ZPnIiyjYiJ-24" value="&lt;div&gt;+ lineEditName: QLineEdit*&lt;/div&gt;&lt;div&gt;+ lineEditNumber: QLineEdit*&lt;/div&gt;&lt;div&gt;+ lineEditCost: QLineEdit*&lt;/div&gt;&lt;div&gt;+ lineEditExistingParts: QLineEdit*&lt;/div&gt;" style="text;strokeColor=none;fillColor=none;align=left;verticalAlign=top;spacingLeft=4;spacingRight=4;overflow=hidden;rotatable=0;points=[[0,0.5],[1,0.5]];portConstraint=eastwest;whiteSpace=wrap;html=1;fontFamily=JetBrains Mono;fontSource=https%3A%2F%2Ffonts.googleapis.com%2Fcss%3Ffamily%3DJetBrains%2BMono;fontSize=12;" vertex="1" parent="jmOYWnTkP0ZPnIiyjYiJ-23">
          <mxGeometry y="26" width="270" height="64" as="geometry" />
        </mxCell>
        <mxCell id="jmOYWnTkP0ZPnIiyjYiJ-25" value="" style="line;strokeWidth=1;fillColor=none;align=left;verticalAlign=middle;spacingTop=-1;spacingLeft=3;spacingRight=3;rotatable=0;labelPosition=right;points=[];portConstraint=eastwest;strokeColor=inherit;fontFamily=JetBrains Mono;fontSource=https%3A%2F%2Ffonts.googleapis.com%2Fcss%3Ffamily%3DJetBrains%2BMono;fontSize=12;" vertex="1" parent="jmOYWnTkP0ZPnIiyjYiJ-23">
          <mxGeometry y="90" width="270" height="8" as="geometry" />
        </mxCell>
        <mxCell id="jmOYWnTkP0ZPnIiyjYiJ-26" value="+&amp;nbsp;getName(): string&lt;br&gt;+ getNumber(): unsigned&lt;br&gt;+ getCost(): double&lt;br&gt;+ getExistingParts(): unsigned&lt;br&gt;+ accept(): void" style="text;strokeColor=none;fillColor=none;align=left;verticalAlign=top;spacingLeft=4;spacingRight=4;overflow=hidden;rotatable=0;points=[[0,0.5],[1,0.5]];portConstraint=eastwest;whiteSpace=wrap;html=1;fontFamily=JetBrains Mono;fontSource=https%3A%2F%2Ffonts.googleapis.com%2Fcss%3Ffamily%3DJetBrains%2BMono;fontSize=12;" vertex="1" parent="jmOYWnTkP0ZPnIiyjYiJ-23">
          <mxGeometry y="98" width="270" height="82" as="geometry" />
        </mxCell>
        <mxCell id="VFm7fAWWrM0yGOx6_Dnm-7" value="mainwindow ⋘ QMainWindow" style="swimlane;fontStyle=1;align=center;verticalAlign=top;childLayout=stackLayout;horizontal=1;startSize=26;horizontalStack=0;resizeParent=1;resizeParentMax=0;resizeLast=0;collapsible=1;marginBottom=0;whiteSpace=wrap;html=1;fontFamily=JetBrains Mono;fontSource=https%3A%2F%2Ffonts.googleapis.com%2Fcss%3Ffamily%3DJetBrains%2BMono;fontSize=12;" vertex="1" parent="1">
          <mxGeometry x="1116" y="40" width="250" height="250" as="geometry" />
        </mxCell>
        <mxCell id="VFm7fAWWrM0yGOx6_Dnm-8" value="&lt;div&gt;+ tabBar: QTabBar*&lt;/div&gt;&lt;div&gt;+ stackedWidget: QStackedWidget*&lt;/div&gt;&lt;div&gt;+ suppliersTab: QWidget*&lt;/div&gt;&lt;div&gt;+ sparePartsTab: QWidget*&lt;/div&gt;&lt;div&gt;+ suppliersView: SuppliersView*&lt;/div&gt;&lt;div&gt;+ sparePartsView: SparePartsView*&lt;/div&gt;&lt;div&gt;+ logDisplay: LogDisplay*&lt;/div&gt;&lt;div&gt;+ dumpLogButton: QPushButton*&lt;/div&gt;&lt;div&gt;+ clearLogButton: QPushButton*&lt;/div&gt;&lt;div&gt;+ logStack: Stack&lt;/div&gt;" style="text;strokeColor=none;fillColor=none;align=left;verticalAlign=top;spacingLeft=4;spacingRight=4;overflow=hidden;rotatable=0;points=[[0,0.5],[1,0.5]];portConstraint=eastwest;whiteSpace=wrap;html=1;fontFamily=JetBrains Mono;fontSource=https%3A%2F%2Ffonts.googleapis.com%2Fcss%3Ffamily%3DJetBrains%2BMono;fontSize=12;" vertex="1" parent="VFm7fAWWrM0yGOx6_Dnm-7">
          <mxGeometry y="26" width="250" height="154" as="geometry" />
        </mxCell>
        <mxCell id="VFm7fAWWrM0yGOx6_Dnm-9" value="" style="line;strokeWidth=1;fillColor=none;align=left;verticalAlign=middle;spacingTop=-1;spacingLeft=3;spacingRight=3;rotatable=0;labelPosition=right;points=[];portConstraint=eastwest;strokeColor=inherit;fontFamily=JetBrains Mono;fontSource=https%3A%2F%2Ffonts.googleapis.com%2Fcss%3Ffamily%3DJetBrains%2BMono;fontSize=12;" vertex="1" parent="VFm7fAWWrM0yGOx6_Dnm-7">
          <mxGeometry y="180" width="250" height="8" as="geometry" />
        </mxCell>
        <mxCell id="VFm7fAWWrM0yGOx6_Dnm-10" value="+ log(QString&amp;amp;): void&lt;br&gt;+ dumpLog(): void&lt;br&gt;+ clearLog(): void" style="text;strokeColor=none;fillColor=none;align=left;verticalAlign=top;spacingLeft=4;spacingRight=4;overflow=hidden;rotatable=0;points=[[0,0.5],[1,0.5]];portConstraint=eastwest;whiteSpace=wrap;html=1;fontFamily=JetBrains Mono;fontSource=https%3A%2F%2Ffonts.googleapis.com%2Fcss%3Ffamily%3DJetBrains%2BMono;fontSize=12;" vertex="1" parent="VFm7fAWWrM0yGOx6_Dnm-7">
          <mxGeometry y="188" width="250" height="62" as="geometry" />
        </mxCell>
      </root>
    </mxGraphModel>
  </diagram>
</mxfile>
